<?xml version="1.0" encoding="UTF-8" standalone="no"?>
<!-- Created with Inkscape (http://www.inkscape.org/) -->

<svg
   width="210mm"
   height="148mm"
   viewBox="0 0 210 148"
   version="1.1"
   id="svg1"
   inkscape:version="1.3.2 (091e20ef0f, 2023-11-25, custom)"
   sodipodi:docname="track.svg"
   xmlns:inkscape="http://www.inkscape.org/namespaces/inkscape"
   xmlns:sodipodi="http://sodipodi.sourceforge.net/DTD/sodipodi-0.dtd"
   xmlns="http://www.w3.org/2000/svg"
   xmlns:svg="http://www.w3.org/2000/svg">
  <sodipodi:namedview
     id="namedview1"
     pagecolor="#505050"
     bordercolor="#ffffff"
     borderopacity="1"
     inkscape:showpageshadow="0"
     inkscape:pageopacity="0"
     inkscape:pagecheckerboard="1"
     inkscape:deskcolor="#505050"
     inkscape:document-units="mm"
     inkscape:zoom="3.7095118"
     inkscape:cx="145.16735"
     inkscape:cy="135.46257"
     inkscape:window-width="1912"
     inkscape:window-height="1212"
     inkscape:window-x="2560"
     inkscape:window-y="0"
     inkscape:window-maximized="0"
     inkscape:current-layer="layer1" />
  <defs
     id="defs1" />
  <g
     inkscape:label="Layer 1"
     inkscape:groupmode="layer"
     id="layer1">
    <path
       style="fill:none;stroke:#000000;stroke-width:0.260938"
       d="m 7.7913497,13.919238 c -0.03116,8.656431 -0.025629,42.077681 -0.025629,42.077681 0,0 -0.4621819,7.768542 5.3989953,7.880057 5.861178,0.111516 19.422333,-0.111515 19.422333,-0.111515 0,0 5.969695,-0.09408 5.861178,-4.126062 -0.108516,-4.031983 -3.75676,-4.73161 -8.159679,-6.91394 -4.402919,-2.182334 -11.417702,-3.107447 -12.067131,-7.917577 -0.649428,-4.810128 2.999969,-7.733789 6.895504,-8.698181 3.895536,-0.964392 7.522544,1.300184 11.722356,5.018181 4.199812,3.717997 5.433097,14.351281 10.343253,18.065455 4.910158,3.714172 5.505851,4.415563 11.492505,4.237577 3.264258,-0.09705 9.983036,-0.40713 13.872515,-4.159327 3.243826,-3.129329 3.994897,-9.297891 4.055795,-13.683098 0.133912,-9.643248 -0.01806,-24.811792 0,-32.78545 0.01806,-7.9736589 -3.688938,-9.1448129 -7.470134,-9.1442419 -3.781191,5.528e-4 -6.606103,1.9758028 -7.010421,8.8096959 -0.404318,6.833892 0.0017,29.334364 -0.114926,35.015752 -0.11652,5.681389 -3.265437,6.742456 -6.780579,6.913941 -3.515143,0.171485 -5.362363,-3.522079 -5.539229,-7.244508 -0.176871,-3.722427 0.606853,-3.130032 -2.965228,-8.590644 -3.572081,-5.460613 -26.335801,-8.519708 -26.547683,-15.054543 -0.211883,-6.534836 3.671866,-6.992527 8.504454,-6.913938 4.832588,0.07859 9.180372,9.486061 13.905932,11.039998 4.725562,1.553938 8.422549,1.517375 11.421895,-0.345406 2.99934,-1.862781 4.244338,-3.967842 4.55269,-7.906714 C 58.868461,15.44356 58.765659,9.7539777 53.273559,5.666069 47.781459,1.5781602 35.683611,2.9332577 26.884397,2.8561076 22.641068,2.8189027 22.454228,2.4377553 17.760601,3.3392565 13.227669,4.2098934 11.153755,5.8238309 9.2152812,8.5486479 8.1702361,10.017616 7.8022642,10.887127 7.7913497,13.919238 Z"
       id="path1"
       sodipodi:nodetypes="scsczzzzzzssszzzzzzzzzzzzzssss" />
  </g>
</svg>
