<?xml version="1.0" encoding="UTF-8" standalone="no"?>
<!-- Created with Inkscape (http://www.inkscape.org/) -->

<svg
   width="210mm"
   height="148mm"
   viewBox="0 0 210 148"
   version="1.1"
   id="svg1"
   inkscape:version="1.3.2 (091e20ef0f, 2023-11-25, custom)"
   sodipodi:docname="track.svg"
   xmlns:inkscape="http://www.inkscape.org/namespaces/inkscape"
   xmlns:sodipodi="http://sodipodi.sourceforge.net/DTD/sodipodi-0.dtd"
   xmlns="http://www.w3.org/2000/svg"
   xmlns:svg="http://www.w3.org/2000/svg">
  <sodipodi:namedview
     id="namedview1"
     pagecolor="#505050"
     bordercolor="#ffffff"
     borderopacity="1"
     inkscape:showpageshadow="0"
     inkscape:pageopacity="0"
     inkscape:pagecheckerboard="1"
     inkscape:deskcolor="#505050"
     inkscape:document-units="mm"
     inkscape:zoom="0.92737795"
     inkscape:cx="397.35687"
     inkscape:cy="561.25984"
     inkscape:window-width="1912"
     inkscape:window-height="1212"
     inkscape:window-x="2560"
     inkscape:window-y="0"
     inkscape:window-maximized="0"
     inkscape:current-layer="layer1" />
  <defs
     id="defs1" />
  <g
     inkscape:label="Layer 1"
     inkscape:groupmode="layer"
     id="layer1">
    <path
       style="fill:none;stroke:#000000;stroke-width:0.465"
       d="m 118.7116,12.831275 c -10.87799,3.739924 -21.975025,6.96156 -32.498405,11.606577 -4.66368,2.058548 -9.26038,4.352972 -13.505833,7.174973 -5.370692,3.569962 -9.796846,8.406596 -14.983037,12.239662 -1.223777,0.904483 -2.383395,1.972741 -3.798514,2.532346 -2.387383,0.944086 -5.30371,0.112231 -7.597031,1.266171 -2.444173,1.229844 -4.163367,3.590653 -5.908802,5.697775 -1.55574,1.87811 -2.470944,4.22765 -4.009546,6.11983 -6.150571,7.56399 -14.627924,13.03842 -20.680809,20.68081 -2.157328,2.72385 -3.722993,5.86944 -5.486745,8.8632 -2.0461813,3.47315 -5.8792383,6.97812 -5.9088023,10.55144 -0.02956,3.573321 1.435181,7.375901 4.431602,8.230111 3.6667323,1.0453 6.7684203,-3.54939 9.9183473,-5.69777 9.384332,-6.400501 16.74611,-15.644881 26.58961,-21.313891 2.026292,-1.16697 4.214651,-2.30512 6.541891,-2.53235 3.625676,-0.35401 7.125195,1.69633 10.762459,1.89926 5.559562,0.31017 11.313073,0.45968 16.67127,-1.05514 7.5096,-2.12306 12.90963,-10.25916 20.6808,-10.97349 10.279585,-0.94491 21.084255,3.36958 29.544005,9.28526 8.14026,5.69225 11.10927,16.62698 18.14847,23.635211 5.76274,5.73738 12.05254,11.31856 19.41464,14.772 4.24828,1.9928 9.32398,4.8152 13.71686,3.16543 5.84861,-2.19647 10.35334,-8.97746 10.97349,-15.19406 0.25311,-2.53728 -1.36967,-5.153681 -3.16543,-6.963951 -4.58796,-4.625 -13.95877,-2.91552 -17.72641,-8.23011 -1.67588,-2.36398 -1.28809,-5.78864 -0.84411,-8.65218 0.32831,-2.11756 3.20998,-3.87591 2.53234,-5.9088 -1.69408,-5.08225 -9.05387,-5.79579 -13.92789,-8.01909 -8.60185,-3.92376 -19.85388,-2.87196 -26.80064,-9.28526 -3.21694,-2.96991 -5.38585,-7.651777 -5.27572,-12.028636 0.091,-3.61656 2.10755,-7.352188 4.85366,-9.707319 10.65521,-9.13815 26.2036,-10.858846 40.09545,-12.872748 3.06386,-0.444168 6.49107,-1.122024 9.28526,0.211029 3.8288,1.826646 4.25776,8.218468 8.23012,9.707318 2.19846,0.823989 5.35744,0.656982 6.96394,-1.055142 1.11123,-1.184286 0.92182,-3.308477 0.42206,-4.85366 C 193.2239,16.398276 185.1338,8.0983755 176.32243,2.9129285 c -1.48622,-0.874631 -3.34742,-1.212647 -5.06469,-1.055143 -3.33009,0.305427 -5.98312,3.27068 -9.28526,3.798516 -5.8496,0.935037 -10.33937,-2.186746 -17.72641,-1.266172 -7.38704,0.920573 -17.057,5.526537 -25.53447,8.4411455 z"
       id="path1"
       sodipodi:nodetypes="aaaaaaaaaazaaaaaaaaaaaaaaaaaaaaaaaaaaaaza" />
  </g>
</svg>
