<?xml version="1.0" encoding="UTF-8" standalone="no"?>
<!-- Created with Inkscape (http://www.inkscape.org/) -->

<svg
   width="210mm"
   height="148mm"
   viewBox="0 0 210 148"
   version="1.1"
   id="svg1"
   inkscape:version="1.3.2 (091e20ef0f, 2023-11-25, custom)"
   sodipodi:docname="track.svg"
   xmlns:inkscape="http://www.inkscape.org/namespaces/inkscape"
   xmlns:sodipodi="http://sodipodi.sourceforge.net/DTD/sodipodi-0.dtd"
   xmlns="http://www.w3.org/2000/svg"
   xmlns:svg="http://www.w3.org/2000/svg">
  <sodipodi:namedview
     id="namedview1"
     pagecolor="#505050"
     bordercolor="#ffffff"
     borderopacity="1"
     inkscape:showpageshadow="0"
     inkscape:pageopacity="0"
     inkscape:pagecheckerboard="1"
     inkscape:deskcolor="#505050"
     inkscape:document-units="mm"
     inkscape:zoom="1.3115105"
     inkscape:cx="294.69837"
     inkscape:cy="316.0478"
     inkscape:window-width="1920"
     inkscape:window-height="1056"
     inkscape:window-x="2560"
     inkscape:window-y="0"
     inkscape:window-maximized="1"
     inkscape:current-layer="layer1" />
  <defs
     id="defs1" />
  <g
     inkscape:label="Layer 1"
     inkscape:groupmode="layer"
     id="layer1">
    <path
       style="fill:none;fill-opacity:1;stroke:#000000;stroke-width:0.695253;stroke-dasharray:none;stroke-opacity:1"
       d="M 71.215687,12.630938 C 61.636724,11.680069 46.644399,12.697322 29.214886,12.930765 18.716315,13.071377 3.806031,19.747541 3.7579411,31.480744 3.7098511,43.213947 4.311946,65.170099 11.513981,77.154085 18.716016,89.138071 36.744257,90.379378 50.188581,94.899332 64.969185,99.868542 79.855475,106.79631 95.857245,105.0387 111.9781,103.268 112.67543,95.702331 118.8246,88.563967 124.79425,81.633995 134.91035,72.565958 131.34058,64.144676 126.84919,53.549249 99.552414,67.517809 98.31063,54.097614 97.508123,45.424765 137.87913,41.954055 135.52688,23.5956 133.72509,9.5333373 122.04834,14.626935 107.77985,14.808824 93.292606,14.993501 89.33517,45.760152 70.404889,46.971498 49.295762,48.322268 43.842149,46.998004 44.031147,37.678942 44.281561,25.331676 74.359771,32.187149 79.445425,26.793718 84.958548,20.946949 83.865002,13.88659 71.215687,12.630938 Z"
       id="path1"
       inkscape:transform-center-x="2.8219287"
       inkscape:transform-center-y="-0.40568407"
       sodipodi:nodetypes="sszzasaassssass" />
  </g>
</svg>
